<svg xmlns="http://www.w3.org/2000/svg" viewBox="0 0 660 135.5">
              <defs>
                <style>
                  .cls-1 {
                    fill: #bdb1a2;
                  }
            
                  .cls-2 {
                    fill: none;
                    stroke: #bdb1a2;
                    stroke-miterlimit: 10;
                  }
                </style>
              </defs>
              <title>Asset 18</title>
              <g id="Layer_2" data-name="Layer 2">
                <g id="Layer_1-2" data-name="Layer 1">
                  <path class="cls-1" d="M271,21.73h-2.54V.44h4.4l5.36,17.87h.06L283.69.44h4.48V21.73h-2.71V2.8h-.06l-6,18.93h-2.56L271,2.8H271Z"></path>
                  <path class="cls-1" d="M293,21.73V.44h11V2.8h-8.26V9.64h7.67V12h-7.67v7.37h8.44v2.36Z"></path>
                  <path class="cls-1" d="M322.47.44V21.73h-3.72l-8.4-18.46h-.06V21.73h-2.42V.44h3.84L320,18.67h.06V.44Z"></path>
                  <path class="cls-1" d="M342.14.44V21.73h-3.72L330,3.27H330V21.73h-2.42V.44h3.84l8.28,18.23h.06V.44Z"></path>
                  <path class="cls-1" d="M351.87.44h3.45l6.93,21.29h-3l-1.54-5.07h-8.23l-1.59,5.07h-2.74ZM353.52,3h0L350.13,14.3H357Z"></path>
                  <path class="cls-1" d="M374.46,6.31a5,5,0,0,0-.62-3.1,3.57,3.57,0,0,0-2.39-.91A3.32,3.32,0,0,0,368.24,4c-.09.24-.62.77-.62,4.43v5.69c0,5.22,1.71,5.84,3.81,5.84.82,0,3.33-.3,3.36-4.46h2.8c.12,6.73-4.63,6.73-6,6.73-2.65,0-6.72-.18-6.72-8.44v-6c0-6,2.65-7.73,6.84-7.73s5.84,2.18,5.57,6.31Z"></path>
                  <path class="cls-1" d="M381.48,21.73V.44h11V2.8H384.2V9.64h7.66V12H384.2v7.37h8.43v2.36Z"></path>
                  <line class="cls-2" y1="135" x2="660" y2="135"></line>
                  <line class="cls-2" x1="660" y1="11.2" x2="408" y2="11.2"></line>
                  <line class="cls-2" x1="252.77" y1="11.2" y2="11.2"></line>
                  <path class="cls-1" d="M173.17,95.56H141.78V62.5h31.06v3.26H145.6V77h26.45v3.26H145.6V92.3h27.57Z"></path>
                  <path class="cls-1" d="M179.08,85l4.15-.56c1.54,6,6.66,9,15.79,9,8.38,0,12.43-2,12.43-6.52,0-3.91-2.56-5.64-9.13-6.24l-10.57-.93c-7.45-.7-10.94-3.49-10.94-8.8,0-6.15,5.82-9.6,16.06-9.6,10.53,0,16.3,3.54,18.26,10.43l-4,.8c-1.59-5.31-5.83-8-14.25-8-7.73,0-12,2.14-12,6.1,0,3.68,2.33,5.17,8.57,5.77l10.25,1c8.28.83,11.82,3.44,11.82,9.12,0,6.62-5.58,10.06-16.48,10.06C187.37,96.68,181,92.86,179.08,85Z"></path>
                  <path class="cls-1" d="M220.25,85l4.15-.56c1.53,6,6.65,9,15.78,9,8.38,0,12.44-2,12.44-6.52,0-3.91-2.57-5.64-9.13-6.24l-10.57-.93C225.47,79.08,222,76.29,222,71c0-6.15,5.83-9.6,16.07-9.6,10.52,0,16.3,3.54,18.25,10.43l-4.05.8c-1.58-5.31-5.82-8-14.25-8-7.73,0-12,2.14-12,6.1,0,3.68,2.33,5.17,8.57,5.77l10.24,1c8.29.83,11.83,3.44,11.83,9.12,0,6.62-5.59,10.06-16.48,10.06C228.54,96.68,222.21,92.86,220.25,85Z"></path>
                  <path class="cls-1" d="M296.48,95.56H265.1V62.5h31.06v3.26H268.92V77h26.45v3.26H268.92V92.3h27.56Z"></path>
                  <path class="cls-1" d="M310.83,62.5l25.14,26a12,12,0,0,1,2.29,3h.09c0-1.21-.05-2.46-.05-3.77V62.5h3.49V95.56h-4.14L311.9,69a14.13,14.13,0,0,1-2.19-2.88h-.14V95.56h-3.49V62.5Z"></path>
                  <path class="cls-1" d="M367.59,65.76v29.8h-3.81V65.76H347.94V62.5h35.49v3.26Z"></path>
                  <path class="cls-1" d="M389.58,62.5h3.81V95.56h-3.81Z"></path>
                  <path class="cls-1" d="M408.53,87.74l-4.28,7.82H400.1L418.77,62.5h3.78l18.67,33.06h-4.14l-4.29-7.82Zm13.74-19.28c-.52-.93-1.12-2.09-1.59-3h-.09c-.42.89-1,2-1.54,3l-8.8,16.07h20.82Z"></path>
                  <path class="cls-1" d="M451.75,62.5V92.21h25.93v3.35H447.93V62.5Z"></path>
                  <path class="cls-1" d="M481.27,85l4.15-.56c1.53,6,6.65,9,15.78,9,8.38,0,12.44-2,12.44-6.52,0-3.91-2.57-5.64-9.13-6.24l-10.57-.93C486.49,79.08,483,76.29,483,71c0-6.15,5.83-9.6,16.07-9.6,10.52,0,16.3,3.54,18.25,10.43l-4,.8c-1.58-5.31-5.82-8-14.25-8-7.73,0-12,2.14-12,6.1,0,3.68,2.33,5.17,8.57,5.77l10.24,1c8.29.83,11.83,3.44,11.83,9.12,0,6.62-5.59,10.06-16.48,10.06C489.56,96.68,483.23,92.86,481.27,85Z"></path>
                </g>
              </g>
            </svg>